<svg xmlns="http://www.w3.org/2000/svg" viewBox="0 0 794.51 740.84"><defs><style>.cls-1{fill:#fff;}.cls-2{fill:#4167b0;}.cls-3{font-size:100px;fill:#231f20;font-family:BigCaslon-Medium, Big Caslon;font-weight:500;}</style></defs><title>Bee Dramatic1</title><g id="Smile"><path d="M525.64,386.83c-7.21-12.57-21.05-19-35.14-19.57-13.31-.52-25.78,5.5-37.29,11.44-8.9,4.6-12.25,17.79-6.85,26.16A22.31,22.31,0,0,0,457,413.22c12.84,4.24,19.31-7.57,35.56-6.91,14.34.58,18.93,10.17,26.22,6.67S530.66,395.59,525.64,386.83Z" transform="translate(-279.17 -47.96)"/><path d="M538.18,508.42c-.88-.09-2.5-.29-4.49-.65-32.2-5.85-45.44-34.93-56.37-31.43-7.41,2.36-8.53,18-8.78,21.58-3.47,48.43,46.33,100.76,64.45,118.59,1.91-16.67,3.42-34.43,4.34-53.17C538.27,544,538.49,525.67,538.18,508.42Z" transform="translate(-279.17 -47.96)"/></g><g id="Face"><path d="M729.36,255.67c-24.94-7-33.19,37.3-88.09,49.24-51,11.09-132.12-8-183.62-51C447.06,245.05,426.73,226,411,232.13c-9.31,3.61-13.79,14.83-16.14,24.13-14.52,108.66-6.88,195.29,2.35,252.66,12.2,75.83,27.25,101,44,118.57,43.39,45.61,117.59,60.91,177.92,40.67C697.18,642,726.25,565,744.25,517.26,786.78,404.56,771.44,267.49,729.36,255.67ZM702,527c-28.91,60.19-59.34,81-67.38,86.25-42.37,27.55-85.9,27.66-103.33,26.74A110.6,110.6,0,0,1,504,630.16c-115.95-60.23-85.69-313.12-81.69-344a14.08,14.08,0,0,1,3.82-4c13.22-9.09,37.92,10.26,66.1,23.46,19.83,9.29,34.72,12.41,63.59,18.46,37.75,7.92,76.77,16.1,118.92,2.59,33.61-10.77,38.58-25.52,49.88-21C755,317.83,746.07,435.26,702,527Z" transform="translate(-279.17 -47.96)"/></g><g id="Sad"><path d="M669.68,326.76c-13.07,2.7-20.49.48-60.3-1.47-20.09-1-43.33-2.61-69.15-5.34.54,21.52.62,38.75.58,50.92,0,9.78-.19,32-.19,32l0,.3c0,.47-2.42,70.14-2.46,107.88,0,.48,0,.84,0,.93,0,17.77-.5,42.75-3.41,71.81h0c-.44,9.07-.84,16.35-1.1,21,0,0-.63,11.13-2.44,39.45l2.51,3.06c19.89,18.23,79.56-7.65,116.82-42.23C673.2,584,683.47,564,702,527c14.85-29.67,34-68.68,39.5-121.73,1-9.39,8.9-90.33-16.85-99.6C711.6,301,703.67,319.72,669.68,326.76Z" transform="translate(-279.17 -47.96)"/><path class="cls-1" d="M658.74,401.93l0,0,.33-.31Z" transform="translate(-279.17 -47.96)"/><path class="cls-1" d="M694.64,412.15c0-5.95-4.15-12.88-9.68-14.83-7-2.47-11.14,4.77-25.83,7.15a47.3,47.3,0,0,1-20.17-.7c-11.14-3-12.17-8.48-21.18-10.71-9.85-2.43-23.6.4-26.15,6.86-4.47,11.33,22.17,42.44,53.36,43.37C668.8,444,694.69,427.09,694.64,412.15Z" transform="translate(-279.17 -47.96)"/><path class="cls-1" d="M622.48,526.3c-14.83-26.29-59.2-33.53-75.92-17.15-6.73,6.6-10.68,18.7-6.34,25.85,5.58,9.2,20,2.14,40.06,9.93,25,9.71,30.27,31.36,38.88,28.65C628,570.8,632.81,544.63,622.48,526.3Z" transform="translate(-279.17 -47.96)"/></g><g id="Hat"><path class="cls-2" d="M361.8,274.74c3.17,16.12,54.08,23.75,155.9,39C688,339.29,741.41,327.58,772.46,298.87c6.12-5.66,20.67-19.5,22.29-39.48,2.84-35.08-36.33-62.74-46.52-69.93-38.39-27.1-82.89-30.55-122.69-28.42C497.53,167.88,354.16,235.81,361.8,274.74Z" transform="translate(-279.17 -47.96)"/><path class="cls-2" d="M606.32,164.72c5.7-21.25,21.87-38.88,41.43-45.17" transform="translate(-279.17 -47.96)"/><path class="cls-2" d="M628.9,151.9c23.83-14.13,31.13-17.13,32.1-24.6,1.2-9.15-7.64-21.12-17.34-22.55-24.87-3.68-57.67,61.6-50.6,67.71C595,174.16,598.5,169.93,628.9,151.9Z" transform="translate(-279.17 -47.96)"/></g><g id="Text"><text class="cls-3" transform="translate(0 86.25)">Bee</text><text class="cls-3" transform="translate(402.72 701.74)">Dramatic</text></g></svg>